<?xml version="1.0" encoding="iso-8859-1"?>
<!-- Uploaded to: SVG Repo, www.svgrepo.com, Generator: SVG Repo Mixer Tools -->
<svg height="800px" width="800px" version="1.1" id="Layer_1" xmlns="http://www.w3.org/2000/svg" xmlns:xlink="http://www.w3.org/1999/xlink" 
	 viewBox="0 0 512 512" xml:space="preserve">
<path style="fill:#FF583E;" d="M0,100.512v254.4h318.016v-254.4C318.016,100.512,0,100.512,0,100.512z"/>
<path d="M238.584,321.744c-25.024,0-45.328,20.104-45.328,44.872s20.304,44.872,45.328,44.872s45.328-20.104,45.328-44.872
	S263.6,321.744,238.584,321.744L238.584,321.744z"/>
<path d="M79.44,321.744c-25.024,0-45.328,20.104-45.328,44.872s20.304,44.872,45.328,44.872s45.328-20.104,45.328-44.872
	S104.464,321.744,79.44,321.744L79.44,321.744z"/>
<path style="fill:#FFD67F;" d="M512,355.072V251.288l-68.224-90.544h-77.144v194.168L512,355.072z"/>
<path d="M439.312,321.744c-25.024,0-45.328,20.104-45.328,44.872s20.304,44.872,45.328,44.872s45.328-20.104,45.328-44.872
	S464.336,321.744,439.312,321.744L439.312,321.744z"/>
<polygon style="fill:#FFFFFF;" points="146.928,290.52 79.744,242.856 92.712,224.592 141.248,259.024 219.736,143.448 
	238.264,156.024 "/>
</svg>